<svg width="240" height="240" viewBox="0 0 240 240" fill="none" xmlns="http://www.w3.org/2000/svg">
  <defs>
    <linearGradient id="bg" x1="34" y1="28" x2="206" y2="214" gradientUnits="userSpaceOnUse">
      <stop stop-color="#FFF8EC"/>
      <stop offset="1" stop-color="#E8ECE8"/>
    </linearGradient>
    <linearGradient id="stone" x1="78" y1="68" x2="164" y2="176" gradientUnits="userSpaceOnUse">
      <stop stop-color="#60747A"/>
      <stop offset="1" stop-color="#37474A"/>
    </linearGradient>
    <linearGradient id="accent" x1="82" y1="88" x2="156" y2="148" gradientUnits="userSpaceOnUse">
      <stop stop-color="#D9B46C"/>
      <stop offset="1" stop-color="#B08A4A"/>
    </linearGradient>
  </defs>
  <rect x="16" y="16" width="208" height="208" rx="48" fill="url(#bg)"/>
  <rect x="34" y="34" width="172" height="172" rx="36" fill="#FFFFFF" fill-opacity="0.55"/>
  <path d="M70 150C78 126 92 110 110 102C116 88 126 80 120 68C118 63 120 56 127 54C139 50 151 58 154 68C156 76 154 84 149 90C164 98 178 116 170 150C164 176 146 190 120 190C94 190 76 176 70 150Z" fill="url(#stone)"/>
  <path d="M84 118C89 104 101 96 120 96C139 96 151 104 156 118" stroke="url(#accent)" stroke-width="12" stroke-linecap="round"/>
  <path d="M90 114L76 94M150 114L164 94" stroke="#D9B46C" stroke-width="10" stroke-linecap="round"/>
  <circle cx="102" cy="128" r="6" fill="#FFF8EC"/>
  <circle cx="138" cy="128" r="6" fill="#FFF8EC"/>
  <path d="M108 151C112 157 117 160 120 160C123 160 128 157 132 151" stroke="#FFF8EC" stroke-width="8" stroke-linecap="round"/>
  <path d="M84 170C94 178 106 182 120 182C134 182 146 178 156 170" stroke="#B08A4A" stroke-width="10" stroke-linecap="round"/>
  <path d="M92 176H148" stroke="#FFF8EC" stroke-width="5" stroke-linecap="round" opacity="0.7"/>
</svg>
