<svg xmlns="http://www.w3.org/2000/svg" width="100%" height="100%" viewBox="0 0 512 512" role="img" aria-labelledby="title desc">
  <title id="title">서울잇다 앱 아이콘</title>
  <desc id="desc">포근한 녹색 배경 안에서 웃고 있는 서울잇다 해치 캐릭터</desc>
  <defs>
    <linearGradient id="background" x1="70" y1="40" x2="450" y2="480" gradientUnits="userSpaceOnUse">
      <stop stop-color="#315F4A"/>
      <stop offset="1" stop-color="#6F9B75"/>
    </linearGradient>
    <linearGradient id="cream" x1="120" y1="80" x2="390" y2="430" gradientUnits="userSpaceOnUse">
      <stop stop-color="#FFFDF7"/>
      <stop offset="1" stop-color="#F3E9CF"/>
    </linearGradient>
    <linearGradient id="stone" x1="170" y1="170" x2="350" y2="390" gradientUnits="userSpaceOnUse">
      <stop stop-color="#62777A"/>
      <stop offset="1" stop-color="#354849"/>
    </linearGradient>
    <linearGradient id="gold" x1="175" y1="215" x2="335" y2="325" gradientUnits="userSpaceOnUse">
      <stop stop-color="#F0CA7D"/>
      <stop offset="1" stop-color="#C6984E"/>
    </linearGradient>
  </defs>

  <rect width="512" height="512" fill="url(#background)"/>
  <circle cx="256" cy="256" r="194" fill="url(#cream)"/>
  <circle cx="256" cy="256" r="174" fill="#FFFFFF" fill-opacity="0.48" stroke="#E7DAB9" stroke-width="5"/>

  <path d="M116 153c0-18 14-32 32-32 13 0 24 7 29 18 6-6 15-10 24-10 19 0 35 15 36 34H116z" fill="#FFFFFF" fill-opacity="0.75"/>
  <path d="M375 104c18 1 31 10 37 27-18 2-33-3-43-17 0-5 2-8 6-10z" fill="#A8C88E"/>
  <path d="M403 137c-1-17 7-30 23-38 5 18 2 33-11 45-5 0-9-2-12-7z" fill="#D9B765"/>

  <path d="M150 342c13-54 43-92 84-107 10-32 30-52 23-76-4-13 2-27 16-32 26-9 52 7 58 30 5 17 0 34-13 48 43 17 76 64 54 137-17 58-60 91-116 91s-99-33-106-91z" fill="url(#stone)"/>
  <path d="M176 270c13-31 39-48 80-48s67 17 80 48" fill="none" stroke="url(#gold)" stroke-width="26" stroke-linecap="round"/>
  <path d="M191 259l-31-42M321 259l31-42" stroke="#D8AF63" stroke-width="21" stroke-linecap="round"/>
  <circle cx="218" cy="289" r="13" fill="#FFF8E8"/>
  <circle cx="294" cy="289" r="13" fill="#FFF8E8"/>
  <circle cx="218" cy="289" r="5" fill="#315248"/>
  <circle cx="294" cy="289" r="5" fill="#315248"/>
  <path d="M229 335c9 13 19 19 27 19s18-6 27-19" fill="none" stroke="#FFF8E8" stroke-width="16" stroke-linecap="round"/>
  <path d="M179 382c22 19 48 28 77 28s55-9 77-28" fill="none" stroke="#C6974C" stroke-width="20" stroke-linecap="round"/>
  <path d="M202 393h108" stroke="#FFF8E8" stroke-width="9" stroke-linecap="round" opacity="0.82"/>

  <circle cx="137" cy="358" r="15" fill="#89AE7D"/>
  <circle cx="376" cy="366" r="18" fill="#8DB484"/>
  <path d="M125 387l10-17 10 17zM363 399l13-21 13 21z" fill="#5F8D68"/>
</svg>
